<?xml version="1.0" encoding="UTF-8" standalone="no"?>
<!DOCTYPE svg PUBLIC "-//W3C//DTD SVG 20010904//EN"
              "http://www.w3.org/TR/2001/REC-SVG-20010904/DTD/svg10.dtd">

<svg xmlns="http://www.w3.org/2000/svg"
     width="19.6667in" height="18.6806in"
     viewBox="0 0 1416 1345">
  <path id="선택 #2"
        fill="currentColor" stroke="currentColor" stroke-width="1"
        d="M 557.00,75.00
           C 564.19,74.00 570.23,68.28 576.00,64.14
             576.00,64.14 610.00,40.69 610.00,40.69
             610.00,40.69 656.00,15.33 656.00,15.33
             656.00,15.33 666.00,11.58 666.00,11.58
             676.91,7.04 682.99,3.86 695.00,1.45
             704.86,-0.54 714.98,-0.11 725.00,0.00
             754.53,0.35 791.72,21.26 817.00,35.58
             885.52,74.38 953.78,128.12 1007.08,186.00
             1007.08,186.00 1025.23,208.00 1025.23,208.00
             1025.23,208.00 1040.76,229.00 1040.76,229.00
             1051.30,245.46 1059.97,268.29 1060.00,288.00
             1060.00,288.00 1058.72,330.00 1058.72,330.00
             1058.72,330.00 1050.00,378.00 1050.00,378.00
             1050.00,378.00 1053.00,379.00 1053.00,379.00
             1053.00,379.00 1049.00,379.00 1049.00,379.00
             1048.02,390.68 1043.68,401.79 1040.64,413.00
             1040.64,413.00 1025.02,465.00 1025.02,465.00
             1025.02,465.00 1020.33,481.00 1020.33,481.00
             1015.88,494.38 1008.04,512.22 1008.00,526.00
             1004.54,527.37 1002.94,533.54 1003.91,537.00
             1004.53,539.24 1006.34,541.27 1008.04,542.78
             1012.46,546.70 1026.41,550.27 1033.00,553.31
             1038.60,555.89 1042.75,559.73 1049.00,560.00
             1050.35,564.58 1055.49,567.30 1059.00,570.27
             1066.47,576.59 1073.29,583.61 1079.71,591.00
             1089.44,602.19 1110.78,632.86 1118.94,646.00
             1123.79,653.82 1134.89,673.81 1141.00,679.00
             1141.71,684.64 1144.91,688.36 1148.00,693.00
             1154.58,702.88 1165.15,720.33 1178.00,721.66
             1183.53,722.24 1188.40,720.07 1192.00,716.00
             1197.61,715.01 1207.03,706.05 1210.99,702.00
             1217.68,695.14 1219.34,692.10 1223.86,684.00
             1232.77,668.04 1233.48,661.65 1235.17,644.00
             1235.17,644.00 1236.00,635.00 1236.00,635.00
             1236.09,626.42 1234.79,610.55 1233.41,602.00
             1232.40,595.73 1232.72,592.62 1228.00,588.00
             1230.31,583.78 1228.00,578.42 1226.87,574.00
             1226.87,574.00 1217.14,541.00 1217.14,541.00
             1209.27,513.52 1207.42,486.34 1210.17,458.00
             1210.17,458.00 1214.60,427.00 1214.60,427.00
             1215.94,420.45 1218.77,414.61 1217.00,408.00
             1222.80,404.82 1222.08,400.42 1223.88,394.83
             1223.88,394.83 1227.26,387.00 1227.26,387.00
             1229.03,383.30 1230.26,382.07 1229.00,378.00
             1235.06,376.01 1238.45,366.16 1242.15,361.00
             1250.04,350.04 1257.35,342.56 1269.00,335.46
             1299.32,317.00 1336.32,324.83 1362.72,346.58
             1368.19,351.09 1374.96,357.49 1379.33,363.00
             1381.58,365.82 1386.64,373.40 1389.30,374.98
             1389.30,374.98 1396.00,377.00 1396.00,377.00
             1396.00,377.00 1389.00,377.00 1389.00,377.00
             1400.56,397.08 1405.12,413.50 1409.31,436.00
             1409.31,436.00 1414.14,467.00 1414.14,467.00
             1414.14,467.00 1414.14,475.00 1414.14,475.00
             1413.85,489.68 1417.03,503.43 1412.25,518.00
             1409.71,525.75 1403.85,532.58 1395.00,528.58
             1383.12,523.22 1378.54,509.22 1374.19,498.00
             1368.16,482.44 1358.24,461.28 1348.37,448.00
             1343.16,440.99 1332.58,428.37 1323.00,428.37
             1316.28,428.37 1309.63,434.38 1306.68,440.00
             1301.28,450.28 1300.12,463.53 1300.00,475.00
             1299.84,491.19 1304.51,509.12 1308.11,525.00
             1308.11,525.00 1312.01,545.00 1312.01,545.00
             1312.01,545.00 1322.64,592.00 1322.64,592.00
             1325.45,605.22 1326.84,630.14 1327.00,644.00
             1327.00,644.00 1327.99,660.00 1327.99,660.00
             1327.99,660.00 1326.96,669.00 1326.96,669.00
             1326.96,669.00 1326.96,678.00 1326.96,678.00
             1324.61,701.22 1319.45,732.16 1309.03,753.00
             1301.17,768.74 1290.99,783.59 1277.00,794.58
             1270.01,800.06 1256.23,806.20 1252.00,811.00
             1245.92,810.38 1241.84,812.38 1236.00,813.55
             1229.56,814.85 1220.57,815.50 1214.00,815.13
             1214.00,815.13 1208.00,815.13 1208.00,815.13
             1185.31,814.77 1148.06,804.33 1126.00,797.25
             1126.00,797.25 1086.00,780.42 1086.00,780.42
             1081.01,778.54 1074.20,775.16 1069.00,777.00
             1067.74,775.82 1067.58,775.44 1065.89,774.63
             1062.93,773.22 1048.15,770.65 1045.11,771.31
             1043.38,771.68 1043.27,772.07 1042.00,773.00
             1032.06,771.73 1026.43,783.79 1024.67,792.00
             1023.38,797.99 1023.99,807.54 1024.00,814.00
             1024.02,825.50 1027.06,844.04 1030.67,855.00
             1035.69,870.25 1043.25,886.59 1053.46,899.00
             1071.80,921.28 1102.57,937.89 1128.00,951.25
             1128.00,951.25 1151.00,965.60 1151.00,965.60
             1155.40,968.25 1157.77,970.61 1163.00,971.00
             1165.95,976.26 1172.91,979.16 1178.00,982.20
             1198.73,994.61 1223.36,995.40 1240.91,976.99
             1254.76,962.47 1261.16,948.51 1264.43,929.00
             1265.60,922.05 1265.99,922.51 1265.96,915.00
             1265.96,915.00 1265.96,898.00 1265.96,898.00
             1265.96,898.00 1265.04,890.00 1265.04,890.00
             1264.90,886.46 1265.32,882.44 1266.17,879.00
             1266.81,876.45 1267.79,874.23 1269.19,872.00
             1280.56,853.91 1301.46,869.29 1311.96,880.01
             1322.06,890.34 1335.68,914.36 1341.18,928.00
             1341.18,928.00 1351.04,957.00 1351.04,957.00
             1353.43,964.52 1353.96,977.25 1357.00,983.00
             1354.01,988.47 1356.15,989.33 1355.90,995.00
             1355.90,995.00 1353.54,1017.00 1353.54,1017.00
             1349.44,1038.73 1337.79,1055.04 1322.00,1069.96
             1314.80,1076.76 1295.29,1089.06 1286.00,1092.74
             1286.00,1092.74 1277.00,1095.02 1277.00,1095.02
             1249.11,1103.56 1230.22,1106.72 1201.00,1107.06
             1201.00,1107.06 1194.00,1107.06 1194.00,1107.06
             1190.45,1106.83 1190.63,1106.09 1185.00,1106.00
             1185.00,1106.00 1172.00,1106.00 1172.00,1106.00
             1172.00,1106.00 1148.00,1103.16 1148.00,1103.16
             1148.00,1103.16 1127.00,1101.21 1127.00,1101.21
             1127.00,1101.21 1095.00,1094.81 1095.00,1094.81
             1095.00,1094.81 1043.00,1082.25 1043.00,1082.25
             1043.00,1082.25 1032.00,1078.00 1032.00,1078.00
             1032.00,1078.00 1013.00,1072.19 1013.00,1072.19
             1013.00,1072.19 994.00,1064.14 994.00,1064.14
             973.87,1055.31 954.08,1045.92 936.00,1033.28
             936.00,1033.28 918.00,1020.35 918.00,1020.35
             914.46,1017.63 911.57,1014.32 907.00,1014.00
             905.79,1009.83 896.57,1002.53 893.04,999.09
             893.04,999.09 856.00,963.00 856.00,963.00
             854.41,971.86 854.96,981.02 855.00,990.00
             855.00,990.00 857.00,1015.00 857.00,1015.00
             857.09,1022.38 859.02,1038.02 863.00,1044.00
             863.00,1044.00 860.00,1045.00 860.00,1045.00
             860.00,1045.00 864.42,1070.00 864.42,1070.00
             864.42,1070.00 872.89,1111.00 872.89,1111.00
             872.89,1111.00 879.85,1133.89 879.85,1133.89
             879.85,1133.89 883.00,1137.00 883.00,1137.00
             881.38,1140.33 884.60,1151.75 888.00,1153.00
             887.80,1161.04 890.49,1164.03 893.69,1171.00
             893.69,1171.00 905.28,1194.00 905.28,1194.00
             912.01,1205.66 917.84,1212.36 926.97,1222.00
             926.97,1222.00 935.04,1230.99 935.04,1230.99
             943.55,1239.67 954.01,1247.11 964.00,1254.02
             974.60,1261.36 988.39,1269.42 1001.00,1272.52
             1015.85,1276.17 1017.18,1273.98 1031.00,1274.00
             1034.96,1274.01 1039.31,1273.97 1043.00,1275.65
             1053.68,1280.52 1049.82,1291.11 1043.81,1298.00
             1037.73,1304.99 1031.19,1308.78 1023.00,1312.74
             1018.24,1315.05 1012.73,1316.19 1009.00,1320.00
             1000.87,1318.69 988.98,1323.35 980.00,1322.68
             960.80,1321.24 946.50,1321.21 928.00,1314.19
             924.51,1312.87 922.08,1312.20 919.00,1310.00
             919.00,1310.00 917.00,1312.00 917.00,1312.00
             914.05,1308.65 902.72,1301.66 898.00,1298.13
             886.98,1289.86 868.24,1273.40 861.00,1262.00
             861.00,1262.00 859.00,1264.00 859.00,1264.00
             858.22,1257.23 855.24,1255.32 851.43,1250.00
             851.43,1250.00 837.31,1228.00 837.31,1228.00
             837.31,1228.00 824.25,1204.00 824.25,1204.00
             824.25,1204.00 799.69,1146.00 799.69,1146.00
             799.69,1146.00 791.14,1121.00 791.14,1121.00
             790.30,1118.06 788.36,1110.55 786.30,1108.60
             783.70,1106.13 780.63,1107.84 776.00,1106.00
             776.00,1106.00 787.00,1106.00 787.00,1106.00
             787.00,1106.00 779.12,1080.00 779.12,1080.00
             779.12,1080.00 765.45,1040.00 765.45,1040.00
             761.75,1030.69 758.38,1020.85 752.00,1013.00
             751.57,1022.34 747.13,1036.56 749.00,1045.00
             745.54,1049.08 745.77,1053.84 744.92,1059.00
             744.92,1059.00 740.12,1090.00 740.12,1090.00
             739.41,1095.04 737.83,1100.18 740.12,1105.00
             733.86,1109.09 737.42,1118.91 735.00,1125.00
             735.00,1125.00 734.00,1123.00 734.00,1123.00
             733.67,1130.16 731.38,1137.00 730.00,1144.00
             730.00,1144.00 724.42,1174.00 724.42,1174.00
             722.91,1180.75 718.54,1189.45 722.00,1196.00
             722.00,1196.00 718.00,1196.00 718.00,1196.00
             716.00,1210.18 707.63,1232.13 702.69,1246.00
             702.69,1246.00 697.39,1262.00 697.39,1262.00
             697.39,1262.00 683.86,1293.00 683.86,1293.00
             683.86,1293.00 673.14,1316.00 673.14,1316.00
             668.55,1323.41 661.30,1334.77 654.00,1339.34
             639.42,1348.47 630.68,1337.69 631.01,1323.00
             631.13,1317.87 634.18,1304.63 635.42,1299.00
             636.51,1294.07 638.17,1290.83 636.00,1286.00
             639.69,1281.68 640.17,1275.46 641.08,1270.00
             641.08,1270.00 645.41,1246.00 645.41,1246.00
             645.41,1246.00 647.28,1228.00 647.28,1228.00
             647.28,1228.00 649.93,1206.00 649.93,1206.00
             649.93,1206.00 649.93,1195.00 649.93,1195.00
             650.25,1191.43 650.92,1191.81 651.00,1186.00
             651.00,1186.00 652.00,1145.00 652.00,1145.00
             652.00,1145.00 651.05,1133.00 651.05,1133.00
             651.05,1133.00 651.05,1118.00 651.05,1118.00
             650.99,1112.86 651.59,1110.64 649.00,1106.00
             653.71,1102.84 651.05,1095.95 651.00,1091.00
             650.90,1080.47 647.89,1070.33 646.29,1060.00
             645.28,1053.40 646.07,1049.10 641.00,1044.00
             641.00,1044.00 628.42,1087.00 628.42,1087.00
             626.80,1092.55 623.50,1099.41 626.00,1105.00
             620.70,1108.17 620.01,1116.41 618.42,1122.00
             618.42,1122.00 605.00,1167.00 605.00,1167.00
             605.00,1167.00 615.00,1168.00 615.00,1168.00
             615.00,1168.00 605.00,1168.00 605.00,1168.00
             605.00,1168.00 592.06,1202.00 592.06,1202.00
             592.06,1202.00 586.06,1217.00 586.06,1217.00
             586.06,1217.00 583.58,1224.72 583.58,1224.72
             583.58,1224.72 572.30,1245.00 572.30,1245.00
             563.91,1260.28 546.78,1285.64 534.96,1298.00
             527.09,1306.23 518.05,1313.59 509.00,1320.50
             500.81,1326.75 489.58,1332.53 480.00,1336.40
             474.64,1338.56 467.05,1339.54 463.00,1343.00
             457.34,1342.08 453.50,1343.31 448.00,1343.83
             440.40,1344.56 433.59,1344.59 426.00,1343.83
             426.00,1343.83 398.99,1339.94 398.99,1339.94
             370.41,1332.20 347.55,1313.79 331.89,1289.00
             323.71,1276.05 320.89,1266.71 318.00,1252.00
             318.00,1252.00 316.09,1241.00 316.09,1241.00
             315.67,1234.56 317.23,1224.46 324.04,1221.74
             332.97,1218.17 340.65,1227.25 344.65,1234.00
             355.23,1251.85 356.76,1274.33 373.30,1289.91
             384.80,1300.73 394.14,1297.49 407.00,1292.34
             407.00,1292.34 422.00,1285.53 422.00,1285.53
             427.87,1282.05 430.48,1278.99 435.37,1275.00
             445.53,1266.71 455.79,1258.73 463.92,1248.28
             467.98,1243.08 478.02,1233.07 479.00,1227.00
             483.74,1225.56 488.30,1217.18 490.99,1213.00
             497.27,1203.22 511.46,1176.82 514.00,1166.00
             514.00,1166.00 503.00,1165.00 503.00,1165.00
             503.00,1165.00 515.00,1165.00 515.00,1165.00
             515.00,1165.00 521.12,1143.00 521.12,1143.00
             521.12,1143.00 524.41,1128.00 524.41,1128.00
             524.41,1128.00 525.51,1119.00 525.51,1119.00
             525.51,1119.00 529.72,1101.00 529.72,1101.00
             529.72,1101.00 534.27,1067.00 534.27,1067.00
             534.27,1067.00 537.24,1048.00 537.24,1048.00
             537.24,1048.00 538.91,1041.00 538.91,1041.00
             538.91,1041.00 543.00,1008.00 543.00,1008.00
             543.00,1008.00 549.00,969.00 549.00,969.00
             549.78,963.31 551.87,957.25 549.00,952.00
             553.32,946.60 553.61,928.20 553.25,921.00
             553.17,919.31 552.87,916.58 552.35,915.00
             547.65,900.71 528.32,917.84 522.00,922.41
             522.00,922.41 515.00,927.29 515.00,927.29
             515.00,927.29 491.00,948.83 491.00,948.83
             491.00,948.83 479.00,958.18 479.00,958.18
             479.00,958.18 461.72,974.26 461.72,974.26
             461.72,974.26 432.58,997.77 432.58,997.77
             432.58,997.77 404.31,1019.46 404.31,1019.46
             402.79,1021.07 402.00,1023.06 401.00,1025.00
             398.24,1023.94 395.27,1026.91 393.00,1028.45
             393.00,1028.45 376.00,1039.69 376.00,1039.69
             376.00,1039.69 345.00,1058.83 345.00,1058.83
             330.24,1067.13 314.62,1075.02 299.00,1081.58
             299.00,1081.58 280.42,1089.46 280.42,1089.46
             264.52,1095.50 241.99,1099.72 225.00,1101.08
             225.00,1101.08 209.72,1102.61 209.72,1102.61
             197.56,1102.41 184.78,1100.99 173.00,1097.85
             173.00,1097.85 153.00,1091.55 153.00,1091.55
             153.00,1091.55 141.00,1086.14 141.00,1086.14
             141.00,1086.14 133.22,1083.08 133.22,1083.08
             129.88,1081.33 130.05,1079.35 126.87,1077.14
             124.48,1075.49 121.61,1075.13 119.00,1074.00
             119.28,1071.99 116.54,1070.46 114.99,1069.19
             114.99,1069.19 104.04,1060.00 104.04,1060.00
             88.60,1046.07 80.86,1035.03 70.86,1017.00
             61.65,1000.40 55.89,982.55 52.20,964.00
             50.75,956.70 49.01,949.46 49.00,942.00
             49.00,942.00 49.00,924.00 49.00,924.00
             49.00,924.00 53.00,892.00 53.00,892.00
             53.00,892.00 59.26,880.00 59.26,880.00
             59.26,880.00 67.00,863.00 67.00,863.00
             71.08,861.83 81.14,849.82 86.00,845.75
             100.90,833.27 119.13,824.00 139.00,824.00
             146.25,824.00 156.35,826.86 159.43,834.28
             160.28,836.34 160.01,843.43 160.00,846.00
             159.98,848.93 160.09,850.24 159.00,853.00
             159.00,853.00 158.00,849.00 158.00,849.00
             147.53,873.29 124.63,888.81 125.00,922.00
             125.08,928.90 127.02,939.54 129.44,946.00
             131.59,951.74 135.48,957.34 139.44,962.00
             144.01,967.38 150.79,972.39 157.00,975.76
             176.13,986.17 193.28,985.28 214.00,981.61
             214.00,981.61 223.00,980.33 223.00,980.33
             236.08,977.63 248.68,972.57 261.00,967.55
             261.00,967.55 279.00,959.03 279.00,959.03
             279.00,959.03 286.00,956.09 286.00,956.09
             300.50,948.44 317.51,938.10 330.00,927.56
             330.00,927.56 339.00,919.17 339.00,919.17
             345.79,913.03 352.69,906.93 358.71,900.00
             358.71,900.00 368.30,887.00 368.30,887.00
             377.67,873.85 385.61,861.20 393.31,847.00
             401.91,831.12 410.37,814.99 416.63,798.00
             416.63,798.00 422.00,779.00 422.00,779.00
             422.00,779.00 390.00,795.74 390.00,795.74
             383.53,799.08 375.94,801.49 371.00,807.00
             368.83,805.79 367.18,807.23 365.00,808.22
             365.00,808.22 353.00,812.95 353.00,812.95
             338.86,818.12 322.05,821.64 307.00,821.99
             286.53,822.45 264.51,811.65 250.75,796.83
             250.75,796.83 237.75,781.00 237.75,781.00
             236.21,778.86 233.39,774.01 231.62,772.60
             229.78,771.12 227.16,770.90 225.00,770.00
             225.00,770.00 230.00,769.00 230.00,769.00
             218.20,746.80 208.37,710.06 205.29,685.00
             205.29,685.00 203.91,664.00 203.91,664.00
             203.91,664.00 202.00,644.00 202.00,644.00
             202.00,644.00 202.00,627.00 202.00,627.00
             202.00,627.00 204.74,590.00 204.74,590.00
             204.74,590.00 207.91,551.00 207.91,551.00
             206.91,534.93 199.37,510.66 190.94,497.00
             186.95,490.54 180.66,482.27 175.00,477.29
             171.06,473.82 163.72,468.33 159.00,466.18
             150.37,462.26 143.36,460.99 134.00,461.00
             112.48,461.03 92.35,482.18 80.12,498.00
             74.50,505.26 60.43,522.23 60.00,531.00
             56.17,534.84 54.13,540.17 51.76,545.00
             47.26,554.15 38.48,579.19 38.00,589.00
             31.01,592.80 27.21,601.23 17.00,600.50
             1.54,599.40 1.13,578.26 1.00,567.00
             1.00,567.00 0.00,554.00 0.00,554.00
             0.00,554.00 1.04,541.00 1.04,541.00
             1.04,541.00 1.04,532.00 1.04,532.00
             1.04,532.00 2.72,523.00 2.72,523.00
             2.72,523.00 7.26,495.00 7.26,495.00
             8.03,490.98 11.22,481.86 12.87,478.00
             14.76,473.58 16.98,471.74 15.00,467.00
             15.00,467.00 37.00,440.00 37.00,440.00
             37.00,440.00 55.00,425.04 55.00,425.04
             55.00,425.04 68.00,416.00 68.00,416.00
             71.56,417.20 73.72,415.31 77.00,413.86
             77.00,413.86 92.00,407.72 92.00,407.72
             100.53,404.15 123.69,398.34 133.00,397.18
             133.00,397.18 155.91,395.73 155.91,395.73
             157.73,395.37 158.45,394.87 160.00,394.00
             164.68,397.98 167.39,396.63 173.00,397.17
             173.00,397.17 193.00,400.42 193.00,400.42
             208.77,403.95 236.80,415.74 249.00,426.00
             249.00,426.00 251.00,424.00 251.00,424.00
             251.00,424.00 252.59,427.54 252.59,427.54
             252.59,427.54 266.00,437.83 266.00,437.83
             266.00,437.83 273.00,440.00 273.00,440.00
             273.00,440.00 269.00,440.00 269.00,440.00
             269.00,440.00 278.91,449.09 278.91,449.09
             286.74,456.92 305.75,480.78 309.00,491.00
             309.00,491.00 312.00,489.00 312.00,489.00
             312.04,498.79 318.62,513.03 321.11,524.00
             324.47,538.78 325.22,553.94 326.08,568.99
             326.08,568.99 327.00,583.00 327.00,583.00
             327.00,583.00 326.34,592.00 326.34,592.00
             326.34,592.00 327.42,610.00 327.42,610.00
             328.08,614.91 327.53,617.23 331.00,621.00
             328.02,634.48 339.89,655.81 351.00,663.04
             357.17,667.05 365.19,669.80 372.00,666.00
             378.16,669.81 393.60,661.02 399.00,657.22
             418.44,643.51 440.18,618.90 441.80,594.00
             443.30,570.89 433.49,558.05 422.86,539.00
             422.86,539.00 409.31,511.00 409.31,511.00
             402.16,495.44 386.87,457.01 381.90,441.00
             381.90,441.00 379.65,432.00 379.65,432.00
             379.65,432.00 371.99,409.00 371.99,409.00
             371.99,409.00 367.12,389.00 367.12,389.00
             367.12,389.00 363.33,376.00 363.33,376.00
             363.33,376.00 357.41,345.00 357.41,345.00
             352.83,315.93 349.35,297.37 361.01,269.00
             361.01,269.00 368.20,253.58 368.20,253.58
             377.78,238.32 396.07,219.78 409.00,207.00
             409.00,207.00 456.00,161.09 456.00,161.09
             456.00,161.09 470.00,149.05 470.00,149.05
             470.00,149.05 529.00,99.40 529.00,99.40
             535.06,94.55 553.19,79.69 559.00,77.00
             559.00,77.00 557.00,75.00 557.00,75.00 Z
           M 492.00,127.00
           C 492.00,127.00 493.00,127.00 493.00,127.00
             493.00,127.00 492.00,128.00 492.00,128.00
             492.00,128.00 492.00,127.00 492.00,127.00 Z
           M 1403.00,376.00
           C 1403.00,376.00 1404.00,376.00 1404.00,376.00
             1404.00,376.00 1403.00,377.00 1403.00,377.00
             1403.00,377.00 1403.00,376.00 1403.00,376.00 Z
           M 222.00,770.00
           C 222.00,770.00 223.00,770.00 223.00,770.00
             223.00,770.00 222.00,771.00 222.00,771.00
             222.00,771.00 222.00,770.00 222.00,770.00 Z
           M 98.00,833.00
           C 98.00,833.00 99.00,833.00 99.00,833.00
             99.00,833.00 98.00,834.00 98.00,834.00
             98.00,834.00 98.00,833.00 98.00,833.00 Z
           M 495.00,1165.00
           C 495.00,1165.00 496.00,1165.00 496.00,1165.00
             496.00,1165.00 495.00,1166.00 495.00,1166.00
             495.00,1166.00 495.00,1165.00 495.00,1165.00 Z" />
</svg>
