<svg width="512" height="512" viewBox="0 0 100 100" xmlns="http://www.w3.org/2000/svg">
  <path d="M92 22 C90 21 85 23 80 24 L55 30 C53 28 50 28 48 30 C45 28 40 32 38 35 C36 34 33 35 30 40 C28 42 28 45 26 46 C24 50 24 65 26 75 C27 80 30 84 36 82 C38 81 38 78 37 75 C35 68 34 60 35 55 C36 52 38 50 40 54 C42 58 45 62 50 62 C55 62 58 58 58 54 C58 51 56 48 54 46 C56 45 60 45 62 42 L64 45 L66 42 L88 30 C92 28 95 26 92 22 Z M52 58 C48 58 46 55 44 52 C46 49 49 49 52 49 C55 49 55 52 52 58 Z" fill="currentColor"/>
</svg>

